<svg version="1.1" id="Layer_1" xmlns="http://www.w3.org/2000/svg" xmlns:xlink="http://www.w3.org/1999/xlink" x="0px" y="0px"
	 width="100%" viewBox="0 0 1024 1024" enable-background="new 0 0 1024 1024" xml:space="preserve">
<path fill="#000000" opacity="1.000000" stroke="none" 
	d="
M489.578369,231.433746 
	C549.718750,225.276428 603.088440,251.980804 628.689880,303.103394 
	C638.709778,323.111786 642.924622,344.550720 644.233582,366.674164 
	C646.662292,407.724945 649.435486,448.742523 659.300842,488.856873 
	C667.658997,522.842773 680.713684,554.721252 702.774414,582.361023 
	C713.293152,595.539795 725.392700,607.273743 736.957886,619.495728 
	C741.890259,624.708313 746.517700,630.212280 750.268616,636.330322 
	C757.403259,647.967346 758.316223,659.940430 750.564209,671.614319 
	C742.339478,684.000122 730.699219,690.494995 715.600708,690.182739 
	C714.470215,690.159363 713.218506,690.158081 712.500061,688.752441 
	C713.470154,686.453247 715.940063,686.557007 717.783936,685.730225 
	C728.643921,680.860962 737.511658,673.850830 741.998901,662.476013 
	C746.140869,651.976379 741.071167,643.039551 730.002441,640.695129 
	C727.362915,640.136047 724.555237,639.713013 722.072449,640.526489 
	C716.584656,642.324707 713.011108,639.962646 709.325684,636.266785 
	C684.567932,611.438843 667.992493,581.756165 656.741211,548.812195 
	C648.040283,523.335632 642.842773,497.070160 638.235718,470.550232 
	C638.235718,475.335907 638.225342,480.121582 638.238647,484.907227 
	C638.252075,489.740295 638.095581,494.583496 638.349731,499.404541 
	C639.365906,518.686218 640.033508,538.002563 642.729736,557.151855 
	C646.022461,580.537720 651.911194,603.148865 663.038757,624.184753 
	C675.338867,647.437683 670.056396,669.123779 656.346924,689.588318 
	C645.012329,706.507690 629.331848,717.926697 609.584961,723.463074 
	C605.561157,724.591248 601.473877,725.267883 597.268494,724.436157 
	C591.358154,723.267334 588.167358,718.617920 589.421204,712.729431 
	C591.520508,702.869995 598.671814,696.744141 606.061035,690.985779 
	C613.192444,685.428223 621.351807,681.549072 629.553406,677.812439 
	C636.399841,674.693237 642.870361,670.937012 648.750427,666.215576 
	C651.107361,664.322998 653.204102,662.155579 654.660522,659.499146 
	C657.669006,654.011719 659.541382,648.277954 655.516296,642.559814 
	C651.634521,637.045288 645.705811,635.878601 639.488159,636.587402 
	C623.047729,638.461487 609.067871,645.867188 596.528870,656.320129 
	C581.757263,668.634094 570.897339,684.285828 559.926331,699.769348 
	C526.794067,746.529480 480.163055,769.893188 424.814453,778.334595 
	C411.794464,780.320251 398.705170,781.540100 385.515533,781.303894 
	C383.789062,781.273010 381.827698,781.928772 379.959229,779.578430 
	C389.274750,773.189331 399.405304,767.584778 404.774963,756.095764 
	C397.327423,754.381348 390.151367,756.516541 382.881378,754.627380 
	C384.682465,751.902954 386.864899,752.264160 388.683594,752.167847 
	C392.673340,751.956665 396.679688,751.994019 400.678345,752.029541 
	C406.883667,752.084717 407.214020,752.450195 407.123749,758.889832 
	C418.197144,758.889832 429.296722,759.301270 440.340210,758.693298 
	C444.950195,758.439514 443.425110,753.579590 443.643890,750.489075 
	C443.875916,747.210876 441.371613,747.385498 439.165771,747.376404 
	C433.832611,747.354309 428.497833,747.263916 423.166840,747.366089 
	C420.188812,747.423096 418.869843,746.227173 419.041443,743.227722 
	C419.165009,741.067627 419.072540,738.895752 419.096741,736.729309 
	C419.168304,730.327026 419.172241,730.327148 412.567108,730.284058 
	C406.351746,730.243469 403.060577,725.904419 406.267090,720.853333 
	C408.103088,717.961121 410.717499,714.598206 415.574860,714.746216 
	C426.064453,715.065613 436.574677,714.658936 447.069336,714.882935 
	C451.477112,714.976990 453.053070,713.385803 452.767365,709.055786 
	C452.482666,704.741089 452.614746,700.391357 452.721832,696.060913 
	C452.792480,693.203552 451.635864,691.403381 448.748444,691.526306 
	C440.490082,691.877991 432.293213,691.063538 423.929077,692.446045 
	C415.498047,693.839783 406.663605,692.837646 398.006592,692.781738 
	C396.289917,692.770630 395.273926,691.613770 395.285187,689.824524 
	C395.298187,687.759644 396.506104,686.816345 398.464478,686.798523 
	C403.963654,686.748413 409.467010,686.606079 414.961304,686.761230 
	C418.444031,686.859497 419.559418,685.415405 419.697571,682.040771 
	C419.863770,677.982483 417.740387,672.822571 420.890930,670.132202 
	C423.858673,667.597961 428.910980,669.254944 433.015594,669.185852 
	C447.178009,668.947571 461.346710,669.077820 475.513000,669.070374 
	C482.677551,669.066650 483.615601,668.276123 483.548401,662.276367 
	C483.474762,655.703491 482.939240,655.263916 475.310699,655.268127 
	C452.818787,655.280396 430.326874,655.279053 407.834961,655.282288 
	C406.835022,655.282471 405.831848,655.323914 404.835907,655.258850 
	C403.375214,655.163513 401.461426,655.358032 401.535309,653.207764 
	C401.606384,651.138062 403.565063,651.323608 404.984711,651.208801 
	C406.807678,651.061340 408.648132,651.116150 410.481171,651.110291 
	C419.147552,651.082703 427.814606,650.992371 436.479950,651.077393 
	C439.971558,651.111633 441.545319,649.913635 441.681305,646.169434 
	C442.090424,634.904236 442.218140,634.886963 453.395599,634.862854 
	C467.728546,634.831909 482.061615,634.857788 496.394470,634.810303 
	C498.167053,634.804443 500.029022,635.247620 502.128418,634.021484 
	C499.966431,632.994751 497.981964,633.337402 496.084717,633.325867 
	C479.919861,633.227722 463.745850,633.469788 447.592743,632.994141 
	C435.986816,632.652405 424.405273,631.625549 412.778168,632.351746 
	C408.853271,632.596924 404.844696,631.723083 401.133484,634.074890 
	C400.046722,634.763489 398.203430,634.353088 396.714233,634.285278 
	C395.211761,634.216919 394.125793,633.458130 394.241455,631.792053 
	C394.340668,630.362488 395.444855,629.853943 396.697876,629.823242 
	C400.695557,629.725342 404.698456,629.567810 408.692596,629.678223 
	C412.340607,629.779114 413.612213,628.215576 413.712738,624.604187 
	C414.037415,612.944763 414.149109,612.875427 425.841370,612.870361 
	C429.345215,612.868896 432.091553,612.742310 432.083160,608.055664 
	C432.077942,605.146606 434.740570,605.053955 436.951141,605.032349 
	C443.450531,604.968811 449.955963,604.790588 456.448395,604.994934 
	C461.316559,605.148010 466.051941,604.015686 470.859619,603.969971 
	C475.189423,603.928711 475.605621,601.288513 475.648071,598.005127 
	C475.692657,594.556763 475.318604,591.501587 470.834503,591.431580 
	C465.669037,591.350891 460.503143,591.293396 455.337311,591.237061 
	C445.340576,591.128174 435.342712,590.899597 425.347504,590.983826 
	C421.144806,591.019287 419.490875,589.685364 419.519836,585.219849 
	C419.603394,572.345093 419.425629,572.343933 406.232361,572.342834 
	C399.434784,572.342285 399.434784,572.342285 397.220398,570.336609 
	C398.124634,568.001648 400.249420,568.604248 401.916382,568.602783 
	C417.069977,568.589294 432.228546,568.475281 447.374603,568.844543 
	C452.476196,568.968933 454.510315,567.375061 453.805145,562.345093 
	C453.667725,561.365173 453.687836,560.333618 453.819366,559.350525 
	C454.458893,554.569336 452.488739,552.867859 447.649200,553.084656 
	C439.997864,553.427551 432.318085,553.071594 424.654358,553.219055 
	C416.477783,553.376404 408.413574,552.287903 400.297821,551.658936 
	C392.532379,551.057190 384.664429,551.882629 376.841248,551.893738 
	C368.796234,551.905212 368.713257,551.724609 368.698486,543.899902 
	C368.677795,532.928528 368.658112,533.141968 357.639923,532.125854 
	C352.824463,531.681763 348.036743,531.344604 343.210388,531.314148 
	C340.314331,531.295898 337.246368,531.985657 336.089355,527.777344 
	C335.527710,525.734497 332.919861,526.434998 331.164093,526.425171 
	C320.664642,526.366455 310.164673,526.394287 299.664978,526.366150 
	C296.847107,526.358582 293.851959,526.831360 293.707489,522.405884 
	C293.550629,517.599304 296.859985,518.148376 299.799896,518.044373 
	C302.463440,517.950195 305.137512,517.896606 307.798096,518.018738 
	C326.771790,518.889099 345.651123,515.798401 364.619202,516.694092 
	C368.002747,516.853821 368.917908,515.222595 368.893036,512.162109 
	C368.804230,501.232941 368.805603,502.525879 378.869049,502.721558 
	C389.522400,502.928772 400.111938,502.272369 410.723663,501.650787 
	C416.679993,501.301910 414.425903,496.875244 414.861145,493.846191 
	C415.351440,490.434052 413.439941,489.772766 410.341736,489.809937 
	C398.344788,489.953949 386.342010,489.983154 374.346863,489.760864 
	C367.687836,489.637512 367.973297,489.368683 367.756012,480.119781 
	C367.634247,474.934875 370.054779,473.896423 374.422089,473.995331 
	C390.241486,474.353546 406.066040,473.637299 421.893341,474.461273 
	C428.683563,474.814758 435.526794,474.091644 442.347717,473.936737 
	C446.133331,473.850769 445.940735,471.219025 445.872742,468.665039 
	C445.803223,466.054504 446.345306,463.139496 442.228180,462.899933 
	C438.368652,462.675354 434.328033,463.743927 430.287964,461.795898 
	C431.970093,459.008667 434.347260,459.906403 436.283905,459.902008 
	C456.281921,459.856689 476.280212,459.929688 496.278351,459.910248 
	C502.676514,459.904022 502.958374,459.509033 502.956116,452.484833 
	C502.954010,445.902100 502.518890,445.371368 496.437225,445.328583 
	C488.437775,445.272308 480.436249,445.395813 472.438599,445.262054 
	C469.022675,445.204956 466.878387,446.080353 467.240326,449.983734 
	C467.577515,453.620392 465.589417,454.446808 462.348999,454.415710 
	C441.520752,454.215729 420.689606,454.246124 399.864075,453.910187 
	C396.337128,453.853271 395.057983,454.641266 395.120087,458.177979 
	C395.201843,462.833679 391.558014,462.014954 388.641327,462.180481 
	C385.072876,462.382996 383.930878,460.456116 384.085968,457.233154 
	C384.232391,454.190155 384.720001,452.144043 388.710083,451.606293 
	C396.150574,450.603546 403.522766,449.634094 411.031525,450.406738 
	C413.540344,450.664917 414.515656,449.571594 414.736877,446.998169 
	C415.632263,436.582916 415.367188,436.293945 405.130981,436.148804 
	C394.151184,435.993164 383.175140,435.576752 372.195374,435.410370 
	C369.114685,435.363647 367.591919,434.344116 367.632874,431.053040 
	C367.833466,414.934753 365.906586,418.265015 380.144043,417.519165 
	C386.716919,417.174896 392.795959,419.092499 399.112488,419.880493 
	C402.478790,420.300476 406.026703,420.466309 405.819489,415.208862 
	C405.732910,413.012604 407.671600,412.726898 409.419342,412.670135 
	C415.412262,412.475586 421.405151,412.227844 427.399750,412.164642 
	C429.480804,412.142670 431.869537,411.921234 432.616180,414.844421 
	C433.103485,416.752289 434.780029,416.660095 436.284058,416.658813 
	C443.616852,416.652649 450.949921,416.575867 458.282349,416.617767 
	C462.405518,416.641327 464.422760,414.678925 464.466827,410.598175 
	C464.511810,406.433624 464.544769,402.268829 464.610443,398.104584 
	C464.668152,394.442444 462.797333,393.205688 459.276520,393.282532 
	C452.280212,393.435181 445.270813,393.500427 438.280914,393.233154 
	C434.405182,393.084961 433.024323,394.596161 432.622833,398.309753 
	C431.743164,406.446838 431.580444,406.221375 423.269318,406.468872 
	C414.764313,406.722137 406.335419,405.909332 397.871796,405.511566 
	C393.963013,405.327850 392.654907,404.002777 392.705780,400.156891 
	C392.813446,392.013214 393.818573,392.208405 384.446533,392.173615 
	C380.614349,392.159393 376.782166,392.088837 372.950836,392.004578 
	C372.478821,391.994171 372.012146,391.740204 371.301086,391.526367 
	C371.546356,385.593781 373.538513,379.506622 369.842316,372.968903 
	C374.815338,373.904327 379.337616,373.524841 383.836029,373.768341 
	C388.139252,374.001343 388.760956,371.712219 388.701630,368.191956 
	C388.644257,364.788666 388.808441,362.025909 383.940033,361.970001 
	C379.119263,361.914642 374.070648,362.826935 369.102631,360.789062 
	C370.831451,357.856781 373.253113,358.808380 375.202637,358.809601 
	C395.002502,358.821869 414.802368,358.943268 434.602081,359.056854 
	C441.412964,359.095917 443.577545,356.060242 441.632751,349.362915 
	C440.932495,346.951477 439.105957,346.898712 437.302429,346.950958 
	C424.866089,347.311096 412.406433,346.189850 399.974487,348.100281 
	C396.597504,348.619202 392.895325,347.021912 388.802338,346.300720 
	C388.802338,340.921967 388.735870,335.493378 388.827942,330.067444 
	C388.880798,326.951141 391.321991,326.950226 393.517670,326.937836 
	C402.350555,326.887939 411.191895,326.663788 420.013641,326.973633 
	C424.919525,327.145966 427.323730,325.711243 426.645355,320.533417 
	C426.495422,319.388824 426.724030,318.199829 426.659393,317.037872 
	C426.477325,313.765991 428.128387,312.632416 431.224457,312.687225 
	C436.555450,312.781616 441.892670,312.573303 447.221863,312.707275 
	C452.191803,312.832153 451.573334,309.450684 451.763550,306.248810 
	C451.977417,302.648712 450.750153,301.149261 446.945526,301.240234 
	C438.450775,301.443268 429.944092,301.143646 421.449158,301.342407 
	C417.432648,301.436401 415.375641,300.154785 415.874084,295.938019 
	C416.293274,292.391724 414.636353,291.159576 411.239471,291.397675 
	C408.260651,291.606476 405.259369,291.571503 402.269867,291.524536 
	C400.126556,291.490906 398.884064,290.467285 398.925812,288.113281 
	C398.964783,285.917786 399.879364,284.663300 402.129669,284.484833 
	C403.125153,284.405823 404.125122,284.124359 405.107941,284.183960 
	C418.570282,285.000763 431.924683,282.547150 445.372314,282.879395 
	C448.452423,282.955475 451.869720,283.626282 451.851685,278.466339 
	C451.837280,274.353119 451.312714,271.492554 446.254364,272.158722 
	C445.690918,272.232971 445.060760,271.800629 443.859131,271.404755 
	C446.946106,269.044281 450.006958,269.971863 452.785614,269.960297 
	C456.079987,269.946625 457.820740,268.915924 457.682556,265.362305 
	C457.550415,261.964142 457.360809,258.813080 452.685669,259.120483 
	C451.856781,259.174988 451.019836,259.101349 450.186584,259.096619 
	C443.060089,259.056305 441.195374,259.506866 441.743225,251.385025 
	C441.942810,248.425674 440.595734,247.328644 437.651855,247.114777 
	C432.345062,246.729202 427.066315,245.946732 421.780273,245.294312 
	C420.502380,245.136566 419.062378,245.234131 418.201385,243.504181 
	C419.378265,241.388336 421.562317,241.955185 423.355743,241.939850 
	C435.854614,241.833069 448.355988,241.935699 460.853180,241.746933 
	C468.305389,241.634369 475.725952,240.878265 484.374634,239.448990 
	C477.892456,237.290771 472.076111,238.530548 466.832489,235.980835 
	C473.958893,232.856003 481.514526,232.059311 489.578369,231.433746 
M500.393677,340.955719 
	C496.900238,355.221680 496.235413,369.357971 503.946411,382.545105 
	C510.334595,393.470001 521.036011,393.107300 527.341064,382.106110 
	C532.923035,372.366516 534.645996,361.763245 533.381226,350.816162 
	C532.443970,342.703278 530.456360,334.696838 524.184753,328.688843 
	C518.762695,323.494659 512.213989,323.667603 506.970764,329.012421 
	C503.868164,332.175079 502.053986,336.080048 500.393677,340.955719 
M580.794006,330.318542 
	C570.745056,346.525513 570.679138,363.346405 577.980530,380.475281 
	C580.220642,385.730499 583.910034,390.298187 590.045654,390.440002 
	C596.500488,390.589264 599.898743,385.607452 602.677246,380.473969 
	C603.384705,379.166748 603.832092,377.713379 604.346130,376.307831 
	C606.073914,371.582825 607.103027,366.635132 607.350159,361.681122 
	C607.879517,351.065125 606.743835,340.602356 600.491577,331.566772 
	C594.954834,323.565247 588.341064,323.127563 580.794006,330.318542 
M415.049835,522.434875 
	C419.679810,520.689941 424.852264,521.782837 429.485321,519.979431 
	C418.730316,517.835571 407.946289,518.564270 397.194946,518.470764 
	C391.381042,518.420166 385.566437,518.452820 379.752167,518.444580 
	C377.501862,518.441406 376.389252,519.557861 376.389221,521.808533 
	C376.389221,523.635803 376.523041,525.480164 376.323761,527.286804 
	C375.858734,531.503418 377.768188,532.841553 381.807007,532.716919 
	C388.777649,532.501831 395.759949,532.660217 402.737335,532.667297 
	C412.707092,532.677307 412.707092,532.679382 415.049835,522.434875 
M466.919403,567.518494 
	C468.263855,569.234009 470.201935,568.892151 471.990540,568.909424 
	C476.986603,568.957886 481.983612,568.960449 486.979889,568.924744 
	C498.636292,568.841492 497.701904,570.692261 497.670929,557.158997 
	C497.664581,554.388916 496.369446,553.276123 493.694183,553.296082 
	C488.698273,553.333374 483.701477,553.239990 478.705292,553.259644 
	C465.458954,553.311768 465.459015,553.324219 466.919403,567.518494 
M454.646942,492.860596 
	C458.813263,492.859314 462.980347,492.908661 467.145752,492.846802 
	C477.447906,492.693817 476.689728,494.605927 476.769592,482.664734 
	C476.792877,479.183136 475.374603,477.871185 472.037567,477.919769 
	C466.540192,477.999817 461.032288,478.101532 455.543610,477.859192 
	C447.377045,477.498627 447.382599,477.374542 447.356934,485.454803 
	C447.355865,485.788086 447.393311,486.128174 447.341309,486.453674 
	C446.535858,491.495453 448.604095,493.677582 454.646942,492.860596 
M517.410522,603.918884 
	C526.248474,603.869812 526.248413,603.869812 525.868774,595.053589 
	C525.861572,594.887451 525.846191,594.720154 525.857849,594.554993 
	C526.085388,591.324707 524.536377,590.110596 521.373474,590.220276 
	C516.888184,590.375854 512.393982,590.284668 507.903625,590.284607 
	C498.894745,590.284424 499.042664,590.277954 499.194611,599.339600 
	C499.253784,602.865723 500.633362,604.064575 503.962097,603.953918 
	C508.115204,603.815857 512.276367,603.919250 517.410522,603.918884 
z"/>
<path fill="#000000" opacity="1.000000" stroke="none" 
	d="
M297.467407,380.847656 
	C306.069672,380.842102 314.226746,380.786346 322.382629,380.861542 
	C325.117950,380.886749 326.942322,380.246399 326.852356,377.044891 
	C326.779602,374.455475 328.051270,372.936462 330.736694,372.922028 
	C336.532135,372.890869 342.327850,372.912445 349.384277,372.912445 
	C346.325317,375.311798 346.083557,377.716400 346.282440,380.175476 
	C346.540161,383.361572 345.089844,384.862610 341.979736,384.824646 
	C326.178314,384.631683 310.376984,384.427582 294.576355,384.180328 
	C294.017151,384.171600 293.465698,383.667999 292.793976,383.337646 
	C293.279938,380.556549 295.321106,380.995483 297.467407,380.847656 
z"/>
<path fill="#000000" opacity="1.000000" stroke="none" 
	d="
M389.973511,306.141479 
	C375.997253,307.601654 362.370544,306.706329 348.756378,306.818268 
	C347.156677,306.831421 345.876068,306.099213 345.795044,304.151978 
	C345.701630,301.908539 347.153259,301.157806 348.941467,301.148621 
	C361.910065,301.081848 374.880219,301.013519 387.847260,301.165344 
	C390.842468,301.200409 391.996521,303.033051 389.973511,306.141479 
z"/>
<path fill="#000000" opacity="1.000000" stroke="none" 
	d="
M283.960327,447.731964 
	C286.113831,447.743896 287.781738,447.841370 289.438202,447.744141 
	C292.767548,447.548706 294.272705,448.884216 294.273804,452.374573 
	C294.274872,455.752838 293.012177,457.262604 289.589966,457.203308 
	C283.772095,457.102448 277.950256,457.105652 272.132080,457.194885 
	C268.858368,457.245056 267.728638,455.710999 267.865326,452.588379 
	C267.988495,449.774628 268.510040,447.658813 271.997192,447.739807 
	C275.819153,447.828583 279.645233,447.740448 283.960327,447.731964 
z"/>
<path fill="#000000" opacity="1.000000" stroke="none" 
	d="
M335.289978,425.809570 
	C337.519806,434.114807 336.750366,435.109192 328.672119,435.088715 
	C326.186707,435.082397 323.698761,434.990906 321.216461,435.073151 
	C317.779175,435.187103 315.552826,434.469666 315.608612,430.185760 
	C315.660950,426.169586 317.459686,424.824951 321.071747,425.036926 
	C325.683228,425.307526 330.339203,424.374146 335.289978,425.809570 
z"/>
<path fill="#000000" opacity="1.000000" stroke="none" 
	d="
M377.408386,576.954407 
	C368.988586,577.053406 361.008698,577.097778 353.028931,577.078430 
	C350.621490,577.072571 348.078461,576.924377 348.168701,573.562073 
	C348.254730,570.356689 350.768524,570.657043 352.916534,570.650330 
	C360.565247,570.626648 368.214111,570.622070 375.862762,570.654480 
	C377.329834,570.660706 379.045166,570.503601 379.625702,572.348267 
	C380.223785,574.248657 380.031433,575.992737 377.408386,576.954407 
z"/>
<path fill="#000000" opacity="1.000000" stroke="none" 
	d="
M314.332031,618.963135 
	C319.737579,618.644287 324.697510,618.494324 329.656677,618.323914 
	C332.756348,618.217468 334.133270,619.632690 334.171600,622.789978 
	C334.209473,625.907837 333.079926,627.400330 329.828522,627.290283 
	C326.025787,627.161499 322.215149,627.288635 318.408539,627.248352 
	C312.369965,627.184509 311.270905,625.187988 314.332031,618.963135 
z"/>
<path fill="#000000" opacity="1.000000" stroke="none" 
	d="
M377.340820,601.905884 
	C381.939240,601.903198 386.078003,601.886230 390.216400,601.917603 
	C392.452484,601.934509 394.115448,602.653687 394.115234,605.314697 
	C394.115051,607.849487 392.663727,608.903625 390.366852,608.946594 
	C385.898804,609.030273 381.428558,609.053772 376.959839,609.019226 
	C374.818298,609.002625 372.363861,609.172363 372.127167,606.091919 
	C371.867493,602.712463 374.028839,601.866882 377.340820,601.905884 
z"/>
<path fill="#000000" opacity="1.000000" stroke="none" 
	d="
M334.540833,499.971893 
	C329.620453,500.041687 325.148743,500.069824 320.678162,500.010986 
	C318.106201,499.977142 316.720276,498.774811 316.821686,495.997101 
	C316.919586,493.316315 318.495972,492.689972 320.760620,492.700531 
	C324.735992,492.719116 328.712036,492.662018 332.686768,492.714722 
	C334.290955,492.735992 336.286804,492.403717 336.860016,494.493866 
	C337.433411,496.584595 337.760925,498.845032 334.540833,499.971893 
z"/>
<path fill="#000000" opacity="1.000000" stroke="none" 
	d="
M232.765366,488.200195 
	C229.657974,488.201874 227.016525,488.129150 224.379013,488.200897 
	C221.534897,488.278229 220.077362,487.126007 220.094772,484.144592 
	C220.112045,481.189880 221.059982,479.440491 224.412231,479.635956 
	C227.207001,479.798950 230.019638,479.656677 232.824371,479.646729 
	C235.105392,479.638611 237.139587,479.816010 237.256180,482.908783 
	C237.367966,485.874420 237.016937,488.284515 232.765366,488.200195 
z"/>
<path fill="#000000" opacity="1.000000" stroke="none" 
	d="
M307.877502,360.310699 
	C305.245544,360.308380 303.093781,360.248810 300.946075,360.316956 
	C298.220886,360.403412 296.624603,359.618317 296.575806,356.436676 
	C296.524963,353.121277 298.071503,351.994110 301.064789,352.032898 
	C303.545013,352.065063 306.025909,352.042450 308.506439,352.056793 
	C311.203583,352.072388 313.292206,352.466614 313.359985,356.069580 
	C313.432159,359.905640 311.376160,360.495178 307.877502,360.310699 
z"/>
<path fill="#000000" opacity="1.000000" stroke="none" 
	d="
M350.518982,459.056793 
	C348.099731,458.254120 347.795227,456.702118 348.241547,454.929810 
	C348.700378,453.107574 350.257294,452.887238 351.802063,452.876495 
	C356.127533,452.846436 360.453308,452.872314 364.778961,452.863953 
	C367.030151,452.859619 368.814270,453.444946 368.699005,456.168701 
	C368.598297,458.549133 366.971283,459.173492 364.927521,459.171783 
	C360.270050,459.167847 355.612549,459.146973 350.518982,459.056793 
z"/>
<path fill="#000000" opacity="1.000000" stroke="none" 
	d="
M250.567719,383.728699 
	C247.484863,378.525024 248.451263,376.374786 253.643921,376.073242 
	C255.938980,375.939972 258.252777,376.065460 260.555542,376.146179 
	C263.184418,376.238312 264.288513,377.609344 264.261383,380.279297 
	C264.233429,383.026093 262.988495,384.207214 260.357544,384.142639 
	C257.233063,384.065979 254.109024,383.972565 250.567719,383.728699 
z"/>
<path fill="#000000" opacity="1.000000" stroke="none" 
	d="
M331.969574,290.317932 
	C329.831360,290.304352 328.171204,290.254120 326.512695,290.286652 
	C323.945312,290.336975 322.959290,288.949768 322.965912,286.562531 
	C322.972626,284.139191 324.111115,282.849426 326.588531,282.844452 
	C329.243622,282.839142 331.899048,282.851868 334.553711,282.813049 
	C337.076324,282.776184 339.162628,283.031281 339.270538,286.394867 
	C339.387787,290.048676 337.195862,290.421417 334.439697,290.319641 
	C333.776825,290.295166 333.112183,290.317596 331.969574,290.317932 
z"/>
<path fill="#000000" opacity="1.000000" stroke="none" 
	d="
M357.924622,634.414124 
	C355.901001,634.066101 353.173737,635.150757 353.406281,632.308716 
	C353.582214,630.158630 356.019073,630.749939 357.563141,630.734924 
	C365.361420,630.658875 373.160950,630.654968 380.959503,630.704773 
	C382.501953,630.714661 384.429718,630.291016 385.251923,634.109741 
	C376.151276,634.648254 367.244598,634.337585 357.924622,634.414124 
z"/>
<path fill="#000000" opacity="1.000000" stroke="none" 
	d="
M347.644165,331.122009 
	C339.098297,330.815399 330.989838,331.688995 322.918793,330.702118 
	C322.281128,330.624146 321.842133,329.979492 321.989410,328.498291 
	C331.818512,328.498291 341.754242,328.498291 351.926697,328.498291 
	C351.185211,331.280457 349.506409,330.925262 347.644165,331.122009 
z"/>
<path fill="#000000" opacity="1.000000" stroke="none" 
	d="
M336.821350,654.442139 
	C340.341034,654.200745 343.464264,654.059082 346.586578,654.077271 
	C348.820618,654.090332 349.851318,655.440674 349.768494,657.603516 
	C349.688477,659.692444 348.379883,660.395203 346.458130,660.377808 
	C343.986053,660.355347 341.507721,660.499207 339.042389,660.371887 
	C334.864777,660.156250 334.360016,658.966858 336.821350,654.442139 
z"/>
<path fill="#000000" opacity="1.000000" stroke="none" 
	d="
M290.092041,589.141602 
	C290.079163,591.660767 289.252533,593.235596 286.968872,593.156250 
	C283.929779,593.050659 280.500214,594.445862 277.976990,592.063110 
	C276.475433,590.645142 276.602844,588.300293 278.296387,586.725952 
	C280.504639,584.673157 288.123657,586.047913 290.092041,589.141602 
z"/>
<path fill="#000000" opacity="1.000000" stroke="none" 
	d="
M351.675354,783.174988 
	C347.888885,783.202454 344.564423,783.233337 341.240540,783.202148 
	C339.597046,783.186707 338.225922,782.623047 338.117004,780.722778 
	C337.993347,778.565369 339.366913,777.800415 341.272583,777.779480 
	C344.762512,777.741089 348.253510,777.726746 351.743195,777.771362 
	C353.285797,777.791016 354.826752,778.033386 355.061890,780.007751 
	C355.317871,782.157593 354.069763,782.993713 351.675354,783.174988 
z"/>
<path fill="#000000" opacity="1.000000" stroke="none" 
	d="
M318.946716,559.463989 
	C318.028473,558.281738 317.827057,557.300354 318.526398,556.416931 
	C320.000397,554.554871 331.785461,554.280334 333.306274,556.124573 
	C333.763947,556.679565 334.012665,557.688232 333.873444,558.393677 
	C333.609894,559.728943 332.380463,560.127563 331.174103,560.133667 
	C327.201721,560.153809 323.208344,560.688171 318.946716,559.463989 
z"/>
<path fill="#000000" opacity="1.000000" stroke="none" 
	d="
M402.632019,272.509705 
	C394.580505,273.356567 386.859070,273.436951 378.919464,272.714172 
	C379.635071,270.076080 380.842072,269.899170 381.988800,269.888397 
	C388.109802,269.830780 394.231934,269.794617 400.352417,269.863190 
	C401.731110,269.878601 403.643066,269.766754 402.632019,272.509705 
z"/>
<path fill="#000000" opacity="1.000000" stroke="none" 
	d="
M325.302490,719.935547 
	C328.315460,720.433960 332.681946,718.426270 332.552032,723.120361 
	C332.426666,727.648376 328.132538,725.826355 325.498535,726.070984 
	C323.470734,726.259277 320.906921,726.544983 320.648956,723.369751 
	C320.398315,720.284302 322.591797,720.004517 325.302490,719.935547 
z"/>
<path fill="#000000" opacity="1.000000" stroke="none" 
	d="
M233.947968,606.772217 
	C236.620163,607.248230 240.519302,605.478943 240.551529,608.890686 
	C240.589417,612.903442 236.520309,610.926025 234.198898,611.242737 
	C232.242264,611.509766 230.218048,611.337952 228.226471,611.274902 
	C226.591049,611.223145 224.601212,611.407104 224.686844,608.924133 
	C224.758514,606.846252 226.495178,606.844666 227.997559,606.797119 
	C229.823212,606.739319 231.651886,606.776917 233.947968,606.772217 
z"/>
<path fill="#000000" opacity="1.000000" stroke="none" 
	d="
M288.881348,654.797913 
	C285.996613,657.133667 282.951599,656.354797 280.103302,656.028931 
	C277.413452,655.721252 277.007507,653.187012 278.207489,651.533691 
	C280.259583,648.706421 283.651520,650.085510 286.480682,650.130310 
	C289.211670,650.173523 289.464539,652.196777 288.881348,654.797913 
z"/>
<path fill="#000000" opacity="1.000000" stroke="none" 
	d="
M282.707855,411.378174 
	C283.737701,411.127777 284.395966,410.951813 285.048126,410.972137 
	C286.997223,411.032715 289.230042,410.684174 289.934662,413.267578 
	C290.318970,414.676636 289.877655,415.999481 288.413757,416.537323 
	C286.339722,417.299286 284.041718,417.618835 282.228912,416.221008 
	C280.503815,414.890778 280.701324,413.072021 282.707855,411.378174 
z"/>
<path fill="#000000" opacity="1.000000" stroke="none" 
	d="
M366.444702,251.545410 
	C368.479034,252.646286 368.745605,254.234268 367.553802,255.364044 
	C365.720001,257.102356 363.188171,256.200653 360.941528,256.261536 
	C359.701660,256.295197 358.614960,255.773483 358.321228,254.478058 
	C357.979523,252.971069 358.694183,251.944687 360.198059,251.534988 
	C362.133698,251.007675 364.086029,250.988602 366.444702,251.545410 
z"/>
<path fill="#000000" opacity="1.000000" stroke="none" 
	d="
M366.788330,690.123657 
	C364.458771,690.001770 362.184631,690.604187 361.297607,688.102112 
	C360.838562,686.807190 361.532074,685.733704 362.810486,685.411316 
	C365.227783,684.801758 368.201996,683.988831 369.840088,686.067078 
	C371.843262,688.608459 369.817108,689.858215 366.788330,690.123657 
z"/>
<path fill="#000000" opacity="1.000000" stroke="none" 
	d="
M256.813904,674.296631 
	C259.484741,674.186401 261.771698,674.115356 264.045868,674.254028 
	C265.011078,674.312866 265.988342,674.830750 265.981598,676.062195 
	C265.974945,677.281006 265.013062,677.818542 264.044159,677.867493 
	C261.768616,677.982422 259.424622,678.192688 257.218201,677.778687 
	C255.350845,677.428284 254.242111,676.119995 256.813904,674.296631 
z"/>
<path fill="#000000" opacity="1.000000" stroke="none" 
	d="
M314.981567,689.166077 
	C313.533661,687.052063 314.062744,685.694092 316.115662,685.232971 
	C318.032501,684.802490 320.205780,684.565674 321.540100,686.405029 
	C322.668976,687.961121 321.807831,689.253296 320.098114,689.747375 
	C318.500366,690.208984 316.855438,690.119446 314.981567,689.166077 
z"/>
<path fill="#000000" opacity="1.000000" stroke="none" 
	d="
M278.495117,544.856812 
	C280.199707,544.985413 281.916290,544.738708 282.031250,546.521118 
	C282.151337,548.383667 280.447510,548.407043 279.154419,548.343445 
	C276.173309,548.196716 273.015411,549.039185 269.822662,547.203918 
	C272.187622,543.570923 275.449951,545.386658 278.495117,544.856812 
z"/>
<path fill="#000000" opacity="1.000000" stroke="none" 
	d="
M236.085602,538.856567 
	C238.397614,538.998352 240.509689,538.411072 242.270355,541.142578 
	C238.233276,543.162048 234.527832,542.328491 230.363647,541.830566 
	C231.301483,538.129150 233.775497,539.110535 236.085602,538.856567 
z"/>
<path fill="#000000" opacity="1.000000" stroke="none" 
	d="
M262.335907,504.602661 
	C264.250122,505.902466 264.264801,507.279846 262.848816,508.419006 
	C261.448639,509.545441 259.720093,509.422638 258.190765,508.595551 
	C257.254059,508.088959 256.866333,507.025574 257.307159,506.022675 
	C258.257355,503.861053 260.158325,504.215210 262.335907,504.602661 
z"/>
<path fill="#000000" opacity="1.000000" stroke="none" 
	d="
M246.160309,438.870056 
	C243.648911,441.700531 241.093567,441.397369 237.746689,439.189056 
	C240.747025,436.385986 243.274902,435.818390 246.160309,438.870056 
z"/>
</svg>