<svg version="1.1" id="Layer_1" xmlns="http://www.w3.org/2000/svg" xmlns:xlink="http://www.w3.org/1999/xlink" x="0px" y="0px"
	 width="100%" viewBox="0 0 512 512" enable-background="new 0 0 512 512" xml:space="preserve">
<path fill="#FFFFFF" opacity="1.000000" stroke="none" 
	d="
M342.000000,513.000000 
	C228.027695,513.000000 114.555382,513.000000 1.041535,513.000000 
	C1.041535,342.402679 1.041535,171.805328 1.041535,1.103989 
	C171.555649,1.103989 342.111389,1.103989 512.833557,1.103989 
	C512.833557,171.666534 512.833557,342.333252 512.833557,513.000000 
	C456.138641,513.000000 399.319305,513.000000 342.000000,513.000000 
M205.181839,376.158844 
	C205.181839,376.158844 205.544479,376.466370 205.380112,377.251678 
	C204.583267,387.321960 203.054718,397.399658 203.156540,407.460846 
	C203.319977,423.612244 215.580185,438.572998 231.050034,443.032410 
	C244.534576,446.919495 257.661469,444.924438 270.562805,440.418732 
	C295.662659,431.652863 315.165558,415.181427 331.942017,395.150818 
	C337.168549,388.910492 341.790985,382.164246 347.000183,375.237091 
	C347.000183,378.904602 347.097778,382.050385 346.984436,385.188538 
	C346.209259,406.650269 360.759064,417.254120 381.398834,415.384949 
	C395.413849,414.115753 407.569977,408.357178 418.571960,400.055084 
	C440.668396,383.381165 456.458954,361.417114 468.941376,337.147583 
	C492.627472,291.094818 506.231018,242.524796 505.212891,190.163498 
	C504.805511,169.214951 502.799255,148.760590 496.010498,128.957520 
	C478.170563,76.917809 441.684052,47.625927 387.052948,42.261097 
	C347.659943,38.392662 309.864380,46.167934 273.523773,61.659290 
	C226.506271,81.702003 185.317032,110.358917 148.405502,145.452576 
	C98.464478,192.934052 58.166706,247.247665 31.197292,310.983704 
	C15.710806,347.582458 6.910856,385.439850 12.103998,425.377258 
	C15.025782,447.846954 28.208227,466.941833 53.654190,471.215057 
	C69.865143,473.937439 85.714859,472.593811 101.310867,467.571228 
	C130.575546,458.146637 153.615707,439.690186 173.218826,416.791382 
	C184.418182,403.709259 194.333801,389.528168 205.181839,376.158844 
z"/>
<path fill="#000000" opacity="1.000000" stroke="none" 
	d="
M204.827438,375.841888 
	C194.333801,389.528168 184.418182,403.709259 173.218826,416.791382 
	C153.615707,439.690186 130.575546,458.146637 101.310867,467.571228 
	C85.714859,472.593811 69.865143,473.937439 53.654190,471.215057 
	C28.208227,466.941833 15.025782,447.846954 12.103998,425.377258 
	C6.910856,385.439850 15.710806,347.582458 31.197292,310.983704 
	C58.166706,247.247665 98.464478,192.934052 148.405502,145.452576 
	C185.317032,110.358917 226.506271,81.702003 273.523773,61.659290 
	C309.864380,46.167934 347.659943,38.392662 387.052948,42.261097 
	C441.684052,47.625927 478.170563,76.917809 496.010498,128.957520 
	C502.799255,148.760590 504.805511,169.214951 505.212891,190.163498 
	C506.231018,242.524796 492.627472,291.094818 468.941376,337.147583 
	C456.458954,361.417114 440.668396,383.381165 418.571960,400.055084 
	C407.569977,408.357178 395.413849,414.115753 381.398834,415.384949 
	C360.759064,417.254120 346.209259,406.650269 346.984436,385.188538 
	C347.097778,382.050385 347.000183,378.904602 347.000183,375.237091 
	C341.790985,382.164246 337.168549,388.910492 331.942017,395.150818 
	C315.165558,415.181427 295.662659,431.652863 270.562805,440.418732 
	C257.661469,444.924438 244.534576,446.919495 231.050034,443.032410 
	C215.580185,438.572998 203.319977,423.612244 203.156540,407.460846 
	C203.054718,397.399658 204.583267,387.321960 205.615753,376.607910 
	C205.809280,375.413910 205.767151,374.863678 205.649368,373.325073 
	C205.169922,374.793182 204.998688,375.317535 204.827438,375.841888 
M435.624695,159.914658 
	C424.469788,145.605225 403.912964,148.896698 396.317505,163.943054 
	C389.158386,178.125015 389.448120,192.935684 397.289215,206.803360 
	C406.180298,222.528015 428.122131,222.818771 436.979065,207.162567 
	C445.681183,191.780014 445.403198,175.888138 435.624695,159.914658 
M360.020721,195.382889 
	C362.136963,184.989426 361.242035,174.764145 356.899536,165.184357 
	C353.463074,157.603241 347.416229,152.238480 338.855988,151.086594 
	C329.546967,149.834000 321.891754,153.245773 316.346619,160.953934 
	C307.253479,173.594116 307.171844,195.267624 316.123901,208.008804 
	C326.026978,222.103500 345.066986,222.143845 354.611694,207.864716 
	C356.955536,204.358261 358.209778,200.123459 360.020721,195.382889 
z"/>
<path fill="#FDFDFD" opacity="1.000000" stroke="none" 
	d="
M435.815002,160.224365 
	C445.403198,175.888138 445.681183,191.780014 436.979065,207.162567 
	C428.122131,222.818771 406.180298,222.528015 397.289215,206.803360 
	C389.448120,192.935684 389.158386,178.125015 396.317505,163.943054 
	C403.912964,148.896698 424.469788,145.605225 435.815002,160.224365 
z"/>
<path fill="#FDFDFD" opacity="1.000000" stroke="none" 
	d="
M359.992859,195.803207 
	C358.209778,200.123459 356.955536,204.358261 354.611694,207.864716 
	C345.066986,222.143845 326.026978,222.103500 316.123901,208.008804 
	C307.171844,195.267624 307.253479,173.594116 316.346619,160.953934 
	C321.891754,153.245773 329.546967,149.834000 338.855988,151.086594 
	C347.416229,152.238480 353.463074,157.603241 356.899536,165.184357 
	C361.242035,174.764145 362.136963,184.989426 359.992859,195.803207 
z"/>
<path fill="#FFFFFF" opacity="1.000000" stroke="none" 
	d="
M205.004639,376.000366 
	C204.998688,375.317535 205.169922,374.793182 205.649368,373.325073 
	C205.767151,374.863678 205.809280,375.413910 205.697937,376.215240 
	C205.544479,376.466370 205.181839,376.158844 205.004639,376.000366 
z"/>
</svg>